<?xml version="1.0" encoding="utf-8"?>
<!-- Generator: Adobe Illustrator 19.0.1, SVG Export Plug-In . SVG Version: 6.00 Build 0)  -->
<svg version="1.1" id="Layer_1" xmlns="http://www.w3.org/2000/svg" xmlns:xlink="http://www.w3.org/1999/xlink" x="0px" y="0px"
	 viewBox="-160 251.4 290.6 290.6" style="enable-background:new -160 251.4 290.6 290.6;" xml:space="preserve">
<g>
	<g>
		<circle style="fill:#efefef;" cx="-14.7" cy="396.7" r="89.1"/>
		<path style="fill:#333333;" d="M-14.7,251.4c-38.1,0-74.7,15.1-101.7,41.6l-6.2-33.1l-9.2,1.7l8.5,45.4l47.2,5.2l1-9.3l-34.2-3.8
			c25.3-24.5,59.2-38.4,94.6-38.4c75,0,135.9,61,135.9,135.9c0,40.9-18.2,77.6-46.9,102.6v-8.8c-4,0-7.6-2.2-9.4-5.8l-1.9-3.9
			c6.4-1.3,11.3-7,11.3-13.8c0-7.8-6.3-14.1-14.1-14.1H41.6v46.9h9.4v-22.3l5.7,11.4c3.3,6.6,9.8,10.7,17.2,10.9
			c-23.8,20.5-54.7,32.9-88.5,32.9c-75,0-135.9-61-135.9-135.9c0-13.8,2.1-27.6,6.3-40.8l-8.9-2.8c-4.4,14.1-6.7,28.8-6.7,43.6
			C-160,476.8-94.8,542-14.7,542s145.3-65.2,145.3-145.3S65.4,251.4-14.7,251.4z M50.9,471.7v-9.4h9.4c2.6,0,4.7,2.1,4.7,4.7
			s-2.1,4.7-4.7,4.7L50.9,471.7L50.9,471.7z"/>
		<path style="fill:#333333;" d="M-134.9,333.3l-8.3-4.4c-1.8,3.5-3.4,6.6-4.7,9.7l8.6,3.8C-138,339.5-136.6,336.5-134.9,333.3z"/>
		<path style="fill:#333333;" d="M-49.9,409.5l-56.9,34.1c-6.8,4.1-11,11.5-11,19.4c0,12.5,10.2,22.6,22.6,22.6h80.5v-9.4h-80.5
			c-7.3,0-13.3-6-13.3-13.3c0-4.6,2.5-9,6.4-11.4l56.9-34.1c18.8-11.3,30.4-31.8,30.4-53.7c0-28.4-23.1-51.6-51.6-51.6
			s-51.6,23.1-51.6,51.6v9.4h9.4v-9.4c0-23.3,18.9-42.2,42.2-42.2s42.2,18.9,42.2,42.2C-24.1,382.5-34,400-49.9,409.5z"/>
		<path style="fill:#333333;" d="M50.3,314.6l-8.2-4.6l-45.5,81.8c-1.3,2.4-2,5-2,7.7c0,8.7,7.1,15.9,15.9,15.9h45.1v28.1H65v-28.1h42.2v-9.4
			H65v-93.8h-9.4v93.8H10.5c-3.6,0-6.5-2.9-6.5-6.5c0-1.1,0.3-2.2,0.8-3.1L50.3,314.6z"/>
		<polygon style="fill:#333333;" points="-5.3,499.8 4.1,499.8 4.1,481.1 22.8,481.1 22.8,499.8 32.2,499.8 32.2,452.9 22.8,452.9 22.8,471.7 
			4.1,471.7 4.1,452.9 -5.3,452.9 		"/>
	</g>
</g>
</svg>
