<?xml version="1.0" encoding="utf-8"?>
<!-- Generator: Adobe Illustrator 19.0.1, SVG Export Plug-In . SVG Version: 6.00 Build 0)  -->
<svg version="1.1" id="Layer_1" xmlns="http://www.w3.org/2000/svg" xmlns:xlink="http://www.w3.org/1999/xlink" x="0px" y="0px"
	 viewBox="-160 251.4 290.6 290.6" style="enable-background:new -160 251.4 290.6 290.6;" xml:space="preserve">
<g>
	<g>
		<path style="fill:#efefef;" d="M50.9,368.6c-2.6,0-4.7-2.1-4.7-4.7v-4.7H-85v4.7c0,2.6-2.1,4.7-4.7,4.7h-4.7v46.9h4.7c2.6,0,4.7,2.1,4.7,4.7
			v4.7H46.3v-4.7c0-2.6,2.1-4.7,4.7-4.7h4.7v-46.9H50.9z M-19.4,420.1c-15.5,0-28.1-12.6-28.1-28.1s12.6-28.1,28.1-28.1
			S8.8,376.5,8.8,392S-3.8,420.1-19.4,420.1z"/>
		<path style="fill:#333333;" d="M-14.7,359.6v-5.1h-9.4v5.1c-15.9,2.3-28.1,15.9-28.1,32.4c0,18.1,14.7,32.8,32.8,32.8s32.8-14.7,32.8-32.8
			C13.4,375.5,1.2,361.8-14.7,359.6z M-19.4,415.4c-12.9,0-23.4-10.5-23.4-23.4s10.5-23.4,23.4-23.4S4.1,379.1,4.1,392
			S-6.5,415.4-19.4,415.4z"/>
		<rect x="-24.1" y="382.6" style="fill:#333333;" width="9.4" height="9.4"/>
		<rect x="-24.1" y="321.7" style="fill:#333333;" width="9.4" height="14.1"/>
		<polygon style="fill:#333333;" points="-14.7,302.9 -10,302.9 -10,293.6 -24.1,293.6 -24.1,307.6 -14.7,307.6 		"/>
		<rect x="36.9" y="293.6" style="fill:#333333;" width="18.8" height="9.4"/>
		<rect x="4.1" y="293.6" style="fill:#333333;" width="18.8" height="9.4"/>
		<path style="fill:#333333;" d="M97.8,321.7c12.9,0,23.4-10.5,23.4-23.4s-10.5-23.4-23.4-23.4c-11.3,0-20.8,8.1-23,18.8h-5.2v9.4h5.2
			C77,313.6,86.5,321.7,97.8,321.7z M97.8,284.2c7.8,0,14.1,6.3,14.1,14.1s-6.3,14.1-14.1,14.1c-7.8,0-14.1-6.3-14.1-14.1
			S90.1,284.2,97.8,284.2z"/>
		<polygon style="fill:#333333;" points="-24.1,513.9 -28.7,513.9 -28.7,523.2 -14.7,523.2 -14.7,509.2 -24.1,509.2 		"/>
		<rect x="-61.6" y="513.9" style="fill:#333333;" width="18.8" height="9.4"/>
		<rect x="-94.4" y="513.9" style="fill:#333333;" width="18.8" height="9.4"/>
		<path style="fill:#333333;" d="M-136.6,495.1c-12.9,0-23.4,10.5-23.4,23.4c0,12.9,10.5,23.4,23.4,23.4c11.3,0,20.8-8.1,23-18.8h5.2v-9.4
			h-5.2C-115.8,503.2-125.2,495.1-136.6,495.1z M-136.6,532.6c-7.8,0-14.1-6.3-14.1-14.1c0-7.8,6.3-14.1,14.1-14.1
			s14.1,6.3,14.1,14.1C-122.5,526.3-128.8,532.6-136.6,532.6z"/>
		<path style="fill:#333333;" d="M107.2,495.1c-11.3,0-20.8,8.1-23,18.8H41.6v-32.8h70.3V377.9H93.1v-18.8H74.4v-18.8H-80.3v-70.3h-33.3
			c-2.2-10.7-11.6-18.8-23-18.8c-12.9,0-23.4,10.5-23.4,23.4c0,12.9,10.5,23.4,23.4,23.4c11.3,0,20.8-8.1,23-18.8h23.9v60.9h-23.4
			v103.1h18.8v18.8h18.8v18.8h51.6v14.1h9.4v-14.1h46.9v42.2h52c2.2,10.7,11.6,18.8,23,18.8c12.9,0,23.4-10.5,23.4-23.4
			C130.6,505.6,120.1,495.1,107.2,495.1z M-136.6,288.9c-7.8,0-14.1-6.3-14.1-14.1s6.3-14.1,14.1-14.1s14.1,6.3,14.1,14.1
			S-128.8,288.9-136.6,288.9z M-103.7,349.8H65v84.4h-168.8V349.8z M-85,443.6H74.4v-75h9.4v84.4h-98.4h-9.4H-85V443.6z
			 M-66.2,462.3h42.2h9.4H93.1v-75h9.4v84.4H-66.2V462.3z M107.2,532.6c-7.8,0-14.1-6.3-14.1-14.1c0-7.8,6.3-14.1,14.1-14.1
			s14.1,6.3,14.1,14.1C121.3,526.3,114.9,532.6,107.2,532.6z"/>
	</g>
</g>
</svg>
