<?xml version="1.0" encoding="utf-8"?>
<!-- Generator: Adobe Illustrator 19.0.1, SVG Export Plug-In . SVG Version: 6.00 Build 0)  -->
<svg version="1.1" id="Layer_1" xmlns="http://www.w3.org/2000/svg" xmlns:xlink="http://www.w3.org/1999/xlink" x="0px" y="0px"
	 viewBox="-149 273.7 295.2 295.2" style="enable-background:new -149 273.7 295.2 295.2;" xml:space="preserve">
<g>
	<g>
		<polygon style="fill:#F8F5F5;" points="-1.4,368.9 -49,473.7 -30,540.3 27.2,540.3 46.2,473.7 		"/>
		<path style="fill:#333333;" d="M3.4,445.8v-72.1h-9.5v72.1c-8.2,2.1-14.3,9.5-14.3,18.4c0,10.5,8.5,19,19,19s19-8.5,19-19
			C17.7,455.3,11.6,447.9,3.4,445.8z M-1.4,473.7c-5.3,0-9.5-4.3-9.5-9.5c0-5.3,4.3-9.5,9.5-9.5c5.3,0,9.5,4.3,9.5,9.5
			C8.1,469.4,3.9,473.7-1.4,473.7z"/>
		<path style="fill:#333333;" d="M48.3,326h60.6c2.1,8.2,9.5,14.3,18.4,14.3c10.5,0,19-8.5,19-19s-8.5-19-19-19c-8.9,0-16.2,6.1-18.4,14.3
			H17.7v-14.3h-38.1v14l-91.2,0.3c-2.1-8.2-9.5-14.3-18.4-14.3c-10.5,0-19,8.5-19,19s8.5,19,19,19c8.9,0,16.2-6.1,18.4-14.3l61-0.2
			c-46.9,18.5-80.1,62.6-83.8,114.5H-149v38.1h38.1v-38.1h-13.9c4.3-57.2,47.4-104.1,104.4-112.8v12.8h38.1v-12.8
			c56.9,8.8,100,55.6,104.4,112.8h-13.9v38.1h38.1v-38.1h-14.7C127.9,388.6,94.9,344.7,48.3,326z M127.2,311.7
			c5.3,0,9.5,4.3,9.5,9.5s-4.3,9.5-9.5,9.5c-5.3,0-9.5-4.3-9.5-9.5S121.9,311.7,127.2,311.7z M-130,330.8c-5.3,0-9.5-4.3-9.5-9.5
			s4.3-9.5,9.5-9.5c5.3,0,9.5,4.3,9.5,9.5S-124.7,330.8-130,330.8z M-120.4,449.8v19h-19v-19h4.8h9.5H-120.4z M8.1,330.8h-19v-19h19
			V330.8z M136.7,449.8v19h-19v-19h4.8h9.5H136.7z"/>
	</g>
</g>
</svg>
