<?xml version="1.0" encoding="utf-8"?>
<!-- Generator: Adobe Illustrator 19.0.1, SVG Export Plug-In . SVG Version: 6.00 Build 0)  -->
<svg version="1.1" id="Layer_1" xmlns="http://www.w3.org/2000/svg" xmlns:xlink="http://www.w3.org/1999/xlink" x="0px" y="0px"
	 viewBox="-157 249.8 295.2 295.2" style="enable-background:new -157 249.8 295.2 295.2;" xml:space="preserve">
<g>
	<g>
		<path style="fill:#efefef;" d="M-97.1,432.8c4.5,1.8,9.3,2.7,14.1,2.7h11.7c5.3,0,9.5,4.3,9.5,9.5c0,10.5,8.5,19,19,19s19-8.5,19-19v-13.3
			c0-9.6-4.4-18.7-11.9-24.8c-7.5-6-11.9-15.1-11.9-24.8v-37.1c0-6.3-1.9-12.4-5.3-17.6l-13.7-20.6l-1-2.3
			c-30.9,19.4-51.4,53.7-51.4,92.8c0,9.8,1.3,19.2,3.7,28.2l1.1,0.4L-97.1,432.8z"/>
		<path style="fill:#efefef;" d="M100.1,397.4c0-49-32.1-90.4-76.4-104.4l-24.5,32.7c-2.5,3.3-3.8,7.3-3.8,11.4v41.3c0,10.5,8.5,19,19,19h38.1
			c5.3,0,9.5-4.3,9.5-9.5c0-5.3,4.3-9.5,9.5-9.5c5.3,0,9.5,4.3,9.5,9.5V412c0,2.8-1.2,5.4-3.3,7.2l-26.7,22.9
			c-2.1,1.8-3.3,4.5-3.3,7.2v41.4C79.2,471.6,100.1,436.9,100.1,397.4z"/>
		<path style="fill:#333333;" d="M-9.4,283.1c-63,0-114.3,51.3-114.3,114.3S-72.4,511.7-9.4,511.7s114.3-51.3,114.3-114.3
			S53.6,283.1-9.4,283.1z M-9.4,502.1c-57.8,0-104.8-47-104.8-104.8s47-104.8,104.8-104.8s104.8,47,104.8,104.8
			S48.4,502.1-9.4,502.1z"/>
		<path style="fill:#333333;" d="M118.4,323.6l-8.2,4.8c12.1,20.9,18.5,44.8,18.5,69c0,76.1-62,138.1-138.1,138.1s-138.1-62-138.1-138.1
			s62-138.1,138.1-138.1c21.7,0,43.2,5.2,62.4,14.9c-0.3,1.3-0.5,2.7-0.5,4.1c0,10.5,8.5,19,19,19s19-8.5,19-19s-8.5-19-19-19
			c-5.7,0-10.7,2.5-14.2,6.5c-20.6-10.4-43.5-16-66.7-16C-90.8,249.8-157,316-157,397.4S-90.8,545-9.4,545s147.6-66.2,147.6-147.6
			C138.2,371.5,131.4,346,118.4,323.6z M71.6,268.8c5.3,0,9.5,4.3,9.5,9.5c0,5.3-4.3,9.5-9.5,9.5s-9.5-4.3-9.5-9.5
			C62,273.1,66.3,268.8,71.6,268.8z"/>
	</g>
</g>
</svg>
