<?xml version="1.0" encoding="utf-8"?>
<!-- Generator: Adobe Illustrator 19.0.1, SVG Export Plug-In . SVG Version: 6.00 Build 0)  -->
<svg version="1.1" id="Layer_1" xmlns="http://www.w3.org/2000/svg" xmlns:xlink="http://www.w3.org/1999/xlink" x="0px" y="0px"
	 viewBox="0 0 120 39" style="enable-background:new 0 0 120 39;" xml:space="preserve">
<g>
	<path d="M29.1,16.2l0.6,0.9c3.7,6,6.3,10,7.8,12.2c1.4,2.2,3.6,5.2,6.4,9.2H24.1l-9.6-15.7C11.4,26.4,8,31,4,36.5
		c-0.7,1-1.3,1.7-1.7,2.1C2,38.9,1.6,39,1.2,39c-0.7,0-1-0.3-1-0.9c0-0.2,0.1-0.5,0.2-0.7c0.1-0.2,0.6-0.9,1.5-2l1-1.2l10.4-13.1
		L0,0.5h19.5l8.4,14c2-2.4,4.8-6.2,8.5-11.2c1.1-1.5,1.8-2.4,2.1-2.8c0.3-0.3,0.7-0.5,1-0.5c0.3,0,0.6,0.1,0.8,0.3
		c0.2,0.2,0.3,0.4,0.3,0.7c0,0.4-0.2,0.7-0.5,1.2c-0.3,0.4-1.4,1.8-3.2,4L29.1,16.2z"/>
	<path d="M72,2.4l-0.1,8.7l-0.1,8.3l0.1,19.1h-17L55,16.3l-0.1-7.5l-0.1-6.4l-3.7,0.1l-5.3,0.1l-0.8,0c-0.9,0-1.3-0.3-1.3-1
		c0-0.6,0.3-0.9,0.8-1c0.1,0,0.6-0.1,1.4-0.1h34.1c1.2,0,1.9,0.1,2.1,0.2c0.4,0.1,0.6,0.5,0.6,0.9c0,0.6-0.5,0.9-1.4,0.9l-2.4-0.1
		l-6.4-0.1H72z"/>
	<path d="M103.1,12.7l-0.1,6.7l0.2,17.8v1.3h-17l0.2-20.7L86.2,0.5h29.5c1.3,0,2.1,0,2.3,0.1c0.4,0.1,0.6,0.4,0.6,0.9
		c0,0.6-0.4,1-1.2,1h-0.2l-13.9-0.2l-0.1,8.6l3,0l9.7-0.2l2.1,0c0.8,0,1.3,0.1,1.5,0.2c0.3,0.1,0.4,0.4,0.4,0.8
		c0,0.7-0.6,1.1-1.8,1.1l-2.2-0.1L103.1,12.7z"/>
</g>
</svg>
