<?xml version="1.0" encoding="utf-8"?>
<!-- Generator: Adobe Illustrator 19.0.1, SVG Export Plug-In . SVG Version: 6.00 Build 0)  -->
<svg version="1.1" id="Layer_1" xmlns="http://www.w3.org/2000/svg" xmlns:xlink="http://www.w3.org/1999/xlink" x="0px" y="0px"
	 viewBox="-149 273.7 295.2 295.2" style="enable-background:new -149 273.7 295.2 295.2;" xml:space="preserve">
<g>
	<g>
		<path style="fill:#333333;" d="M146.2,435.6h-38.1v-42.8l-75.2-0.5L3.4,380v-15.9h-9.5V380l-29.5,12.2l-75.2,0.5v42.8H-149v57.1h85.7v-57.1
			h-38.1v-33.4l65.7-0.4l29.6,13.1v20.7h-38.1v57.1h85.7v-57.1H3.4v-20.7l29.6-13.1l65.7,0.4v33.4H60.5v57.1h38.1V507H-6.1v23.8h-19
			c-10.5,0-19,8.5-19,19s8.5,19,19,19h47.6c10.5,0,19-8.5,19-19s-8.5-19-19-19h-19v-14.3h104.8v-23.8h38.1V435.6z M-72.8,483.2
			h-66.7v-38.1h66.7V483.2z M32,483.2h-66.7v-38.1H32V483.2z M-1.4,406.5l-21.2-9.4l21.2-8.8l21.2,8.8L-1.4,406.5z M32,549.8
			c0,5.3-4.3,9.5-9.5,9.5h-47.6c-5.3,0-9.5-4.3-9.5-9.5c0-5.3,4.3-9.5,9.5-9.5h47.6C27.7,540.3,32,544.6,32,549.8z M136.7,483.2H70
			v-38.1h66.7V483.2z"/>
		<path style="fill:#F8F5F5;" d="M22.4,368.9h-47.6v-27.4c-9-7.2-14.3-18.1-14.3-29.7c0-21,17.1-38.1,38.1-38.1s38.1,17.1,38.1,38.1
			c0,11.6-5.3,22.5-14.3,29.7L22.4,368.9L22.4,368.9z"/>
		<path style="fill:#333333;" d="M27.2,345.1H3.4v-19.9c5.5-2,9.5-7.2,9.5-13.4c0-7.9-6.4-14.3-14.3-14.3s-14.3,6.4-14.3,14.3
			c0,6.2,4,11.4,9.5,13.4v19.9H-30v9.5h57.1L27.2,345.1L27.2,345.1z M-1.4,307c2.6,0,4.8,2.1,4.8,4.8c0,2.6-2.1,4.8-4.8,4.8
			s-4.8-2.1-4.8-4.8C-6.1,309.1-4,307-1.4,307z"/>
		<rect x="-77.6" y="307" style="fill:#333333;" width="23.8" height="9.5"/>
		
			<rect x="-72.7" y="331.6" transform="matrix(-0.9238 0.3828 -0.3828 -0.9238 11.8282 670.3372)" style="fill:#333333;" width="23.8" height="9.5"/>
		
			<rect x="53.3" y="324.4" transform="matrix(-0.3827 0.9239 -0.9239 -0.3827 390.955 411.4605)" style="fill:#333333;" width="9.5" height="23.8"/>
		<rect x="51" y="307" style="fill:#333333;" width="23.8" height="9.5"/>
		
			<rect x="46.1" y="282.4" transform="matrix(-0.9238 0.3828 -0.3828 -0.9238 221.5137 530.2186)" style="fill:#333333;" width="23.8" height="9.5"/>
		
			<rect x="-65.5" y="275.2" transform="matrix(-0.3827 0.9239 -0.9239 -0.3827 181.2572 453.1708)" style="fill:#333333;" width="9.5" height="23.8"/>
	</g>
</g>
</svg>
