<?xml version="1.0" encoding="utf-8"?>
<!-- Generator: Adobe Illustrator 19.0.1, SVG Export Plug-In . SVG Version: 6.00 Build 0)  -->
<svg version="1.1" id="Layer_1" xmlns="http://www.w3.org/2000/svg" xmlns:xlink="http://www.w3.org/1999/xlink" x="0px" y="0px"
	 viewBox="-151 275.5 291.4 291.4" style="enable-background:new -151 275.5 291.4 291.4;" xml:space="preserve">
<g>
	<g>
		<rect x="-10.1" y="466.9" style="fill:#F8F5F5;" width="9.5" height="100"/>
		<rect x="-33.9" y="466.9" style="fill:#F8F5F5;" width="9.5" height="76.2"/>
		<rect x="-57.7" y="509.7" style="fill:#F8F5F5;" width="9.5" height="9.5"/>
		<rect x="-57.7" y="466.9" style="fill:#F8F5F5;" width="9.5" height="33.3"/>
		<rect x="13.7" y="533.6" style="fill:#F8F5F5;" width="9.5" height="9.5"/>
		<rect x="13.7" y="466.9" style="fill:#F8F5F5;" width="9.5" height="57.1"/>
		<rect x="37.5" y="466.9" style="fill:#F8F5F5;" width="9.5" height="52.4"/>
		<circle style="fill:#F8F5F5;" cx="-5.3" cy="357.4" r="33.3"/>
		<path style="fill:#333333;" d="M51.8,391.4v-31.3c0-30.2-15.2-57.9-40.7-74.2l-16.4-10.5L-21.8,286c-25.5,16.2-40.7,43.9-40.7,74.2v31.3
			c-24.7,4.8-42.9,26.4-42.9,51.9v56.9h9.5c0-15.8,12.8-28.6,28.6-28.6H56.6c15.8,0,28.6,12.8,28.6,28.6h9.5v-56.9
			C94.7,417.8,76.5,396.2,51.8,391.4z M-16.6,294l11.3-7.2L6,294c22.7,14.5,36.3,39.2,36.3,66.1v59.1h-95.2v-59.1
			C-52.9,333.2-39.4,308.5-16.6,294z M-67.2,462.1c-11.4,0-21.6,5-28.6,12.9v-31.7c0-20.3,14-37.6,33.3-42.2v61H-67.2z M-52.9,462.1
			v-33.3h95.2v33.3H-52.9z M85.2,475.1c-7-7.9-17.2-12.9-28.6-12.9h-4.8v-61c19.3,4.6,33.3,21.9,33.3,42.2L85.2,475.1L85.2,475.1z"
			/>
		<polygon style="fill:#333333;" points="-129.1,314.5 -138.7,314.5 -138.7,324 -148.2,324 -148.2,333.6 -138.7,333.6 -138.7,343.1
			-129.1,343.1 -129.1,333.6 -119.6,333.6 -119.6,324 -129.1,324 		"/>
		<polygon style="fill:#333333;" points="-105.3,324 -95.8,324 -95.8,309.7 -81.5,309.7 -81.5,300.2 -95.8,300.2 -95.8,285.9 -105.3,285.9
			-105.3,300.2 -119.6,300.2 -119.6,309.7 -105.3,309.7 		"/>
		<polygon style="fill:#333333;" points="-86.3,366.9 -86.3,357.4 -76.7,357.4 -76.7,347.8 -86.3,347.8 -86.3,338.3 -95.8,338.3 -95.8,347.8
			-105.3,347.8 -105.3,357.4 -95.8,357.4 -95.8,366.9 		"/>
		<polygon style="fill:#333333;" points="80.4,338.3 89.9,338.3 89.9,328.8 99.4,328.8 99.4,319.3 89.9,319.3 89.9,309.7 80.4,309.7
			80.4,319.3 70.9,319.3 70.9,328.8 80.4,328.8 		"/>
		<polygon style="fill:#333333;" points="137.5,352.6 123.3,352.6 123.3,338.3 113.7,338.3 113.7,352.6 99.4,352.6 99.4,362.1 113.7,362.1
			113.7,376.4 123.3,376.4 123.3,362.1 137.5,362.1 		"/>
		<polygon style="fill:#333333;" points="70.9,381.2 80.4,381.2 80.4,371.7 89.9,371.7 89.9,362.1 80.4,362.1 80.4,352.6 70.9,352.6
			70.9,362.1 61.3,362.1 61.3,371.7 70.9,371.7 		"/>
	</g>
</g>
</svg>
