<?xml version="1.0" encoding="utf-8"?>
<!-- Generator: Adobe Illustrator 19.0.1, SVG Export Plug-In . SVG Version: 6.00 Build 0)  -->
<svg version="1.1" id="Isolation_Mode" xmlns="http://www.w3.org/2000/svg" xmlns:xlink="http://www.w3.org/1999/xlink" x="0px"
	 y="0px" viewBox="-160 251.4 290.6 290.6" style="enable-background:new -160 251.4 290.6 290.6;" xml:space="preserve">
<g>
	<circle style="fill:#EFEFEF;" cx="-94.4" cy="331.1" r="23.4"/>
	<polygon style="fill:#333333;" points="-72.6,320.6 -78.6,313.4 -103.5,334.1 -109.8,327.7 -116.4,334.4 -104,346.8 	"/>
	<rect x="-56.9" y="317" style="fill:#333333;" width="70.3" height="9.4"/>
	<rect x="-56.9" y="335.7" style="fill:#333333;" width="79.7" height="9.4"/>
	<polygon style="fill:#333333;" points="-72.6,367.5 -78.6,360.3 -103.5,381 -109.8,374.6 -116.4,381.3 -104,393.7 	"/>
	<rect x="-56.9" y="363.9" style="fill:#333333;" width="98.4" height="9.4"/>
	<rect x="-56.9" y="382.6" style="fill:#333333;" width="18.8" height="9.4"/>
	<rect x="-28.7" y="382.6" style="fill:#333333;" width="70.3" height="9.4"/>
	<polygon style="fill:#333333;" points="-72.6,414.3 -78.6,407.1 -103.5,427.8 -109.8,421.5 -116.4,428.1 -104,440.5 	"/>
	<rect x="-56.9" y="410.7" style="fill:#333333;" width="98.4" height="9.4"/>
	<rect x="-56.9" y="429.5" style="fill:#333333;" width="70.3" height="9.4"/>
	<rect x="22.8" y="429.5" style="fill:#333333;" width="18.8" height="9.4"/>
	<rect x="22.8" y="317" style="fill:#333333;" width="18.8" height="9.4"/>
	<path style="fill:#333333;" d="M116.6,467h-9.4h-9.4h-9.4h-9.4V274.8c0-12.9-10.5-23.4-23.4-23.4h-192.2c-12.9,0-23.4,10.5-23.4,23.4
		c0,12.9,10.5,23.4,23.4,23.4V542H60.3v-28.1h18.8v-18.8h9.4h9.4h9.4h9.4c7.8,0,14.1-6.3,14.1-14.1C130.6,473.3,124.3,467,116.6,467
		z M69.7,274.8V467h-9.4V288.9h-4.7c-7.8,0-14.1-6.3-14.1-14.1s6.3-14.1,14.1-14.1S69.7,267.1,69.7,274.8z M-150.6,274.8
		c0-7.8,6.3-14.1,14.1-14.1H37c-3,3.9-4.8,8.8-4.8,14.1c0,5.3,1.8,10.1,4.8,14.1h-173.6C-144.3,288.9-150.6,282.6-150.6,274.8z
		 M-127.2,532.6V298.2H50.9V467h-132l-42.2,14.1l42.2,14.1h132v37.5L-127.2,532.6L-127.2,532.6z M-93.6,481.1l8.6-2.9v5.7
		L-93.6,481.1z M69.7,504.5h-9.4v-9.4h9.4V504.5z M79.1,485.7H-75.6v-9.4H79.1L79.1,485.7L79.1,485.7z M97.8,485.7h-9.4v-9.4h9.4
		V485.7z M116.6,485.7h-9.4v-9.4h9.4c2.6,0,4.7,2.1,4.7,4.7S119.2,485.7,116.6,485.7z"/>
</g>
</svg>
